<svg width="50" height="50" viewBox="0 0 50 50" fill="none" xmlns="http://www.w3.org/2000/svg">
<path d="M6.24988 43.7497L4.2199 43.2812C4.05838 43.9812 4.26881 44.7149 4.77673 45.2229C5.28467 45.7308 6.01842 45.9412 6.71833 45.7797L6.24988 43.7497ZM19.055 33.8906C19.8686 33.077 19.8686 31.7579 19.055 30.9443C18.2414 30.1308 16.9223 30.1308 16.1087 30.9443L19.055 33.8906ZM20.8332 30.2081C20.8332 30.7833 20.3668 31.2497 19.7915 31.2497V35.4164C22.668 35.4164 24.9999 33.0845 24.9999 30.2081H20.8332ZM19.7915 31.2497C19.2163 31.2497 18.7499 30.7833 18.7499 30.2081H14.5832C14.5832 33.0845 16.9151 35.4164 19.7915 35.4164V31.2497ZM18.7499 30.2081C18.7499 29.6327 19.2163 29.1664 19.7915 29.1664V24.9997C16.9151 24.9997 14.5832 27.3316 14.5832 30.2081H18.7499ZM19.7915 29.1664C20.3668 29.1664 20.8332 29.6327 20.8332 30.2081H24.9999C24.9999 27.3316 22.668 24.9997 19.7915 24.9997V29.1664ZM29.503 7.13355L25.6101 11.0265L28.5563 13.9728L32.4493 10.0798L29.503 7.13355ZM26.5109 10.4965L15.7079 13.5831L16.8526 17.5894L27.6555 14.5028L26.5109 10.4965ZM9.58581 20.0289L4.2199 43.2812L8.27986 44.2181L13.6458 20.9658L9.58581 20.0289ZM6.71833 45.7797L29.9707 40.4137L29.0338 36.3537L5.78142 41.7197L6.71833 45.7797ZM36.4165 34.2916L39.503 23.4887L35.4968 22.3439L32.4101 33.147L36.4165 34.2916ZM38.973 24.3895L42.8659 20.4965L39.9197 17.5502L36.0268 21.4433L38.973 24.3895ZM42.8659 12.8362L37.1634 7.13355L34.2172 10.0798L39.9197 15.7825L42.8659 12.8362ZM42.8659 20.4965C43.2543 20.1083 43.6351 19.7297 43.9286 19.384C44.2378 19.0198 44.5703 18.5575 44.7663 17.9539L40.8036 16.6663C40.8451 16.5384 40.894 16.5203 40.7522 16.6875C40.5945 16.8732 40.3565 17.1134 39.9197 17.5502L42.8659 20.4965ZM39.9197 15.7825C40.3565 16.2193 40.5945 16.4594 40.7522 16.6452C40.894 16.8124 40.8451 16.7942 40.8036 16.6663L44.7663 15.3788C44.5703 14.7752 44.2378 14.3129 43.9286 13.9487C43.6351 13.603 43.2543 13.2244 42.8659 12.8362L39.9197 15.7825ZM44.7663 17.9539C45.0382 17.1171 45.0382 16.2156 44.7663 15.3788L40.8036 16.6663L44.7663 17.9539ZM29.9707 40.4137C31.2249 40.1243 32.3209 39.897 33.2501 39.3318L31.0847 35.7722C30.8659 35.9052 30.568 35.9997 29.0338 36.3537L29.9707 40.4137ZM32.4101 33.147C31.9776 34.6608 31.8678 34.9535 31.7236 35.1652L35.1674 37.511C35.7797 36.6122 36.063 35.5291 36.4165 34.2916L32.4101 33.147ZM33.2501 39.3318C34.0118 38.8687 34.6655 38.2477 35.1674 37.511L31.7236 35.1652C31.5563 35.4108 31.3386 35.6177 31.0847 35.7722L33.2501 39.3318ZM15.7079 13.5831C14.4704 13.9366 13.3874 14.22 12.4886 14.8323L14.8344 18.2758C15.046 18.1317 15.3387 18.0219 16.8526 17.5894L15.7079 13.5831ZM13.6458 20.9658C13.9998 19.4316 14.0944 19.1336 14.2274 18.9149L10.6676 16.7494C10.1024 17.6786 9.87523 18.7748 9.58581 20.0289L13.6458 20.9658ZM12.4886 14.8323C11.7518 15.3342 11.1309 15.9878 10.6676 16.7494L14.2274 18.9149C14.3818 18.661 14.5888 18.4431 14.8344 18.2758L12.4886 14.8323ZM32.4493 10.0798C32.8861 9.64303 33.1263 9.40514 33.3122 9.24743C33.4793 9.10549 33.4611 9.15441 33.3332 9.19595L32.0457 5.23322C31.442 5.42934 30.9799 5.76178 30.6155 6.07101C30.2699 6.36445 29.8913 6.74536 29.503 7.13355L32.4493 10.0798ZM37.1634 7.13355C36.7751 6.74534 36.3965 6.36445 36.0509 6.07101C35.6865 5.76178 35.2245 5.42934 34.6207 5.23322L33.3332 9.19595C33.2053 9.15441 33.1872 9.10551 33.3542 9.24743C33.5401 9.40514 33.7803 9.64301 34.2172 10.0798L37.1634 7.13355ZM33.3332 9.19595L34.6207 5.23322C33.7838 4.96132 32.8826 4.96132 32.0457 5.23322L33.3332 9.19595ZM25.6101 13.9728L36.0268 24.3895L38.973 21.4433L28.5563 11.0265L25.6101 13.9728ZM16.1087 30.9443L4.77673 42.2766L7.72302 45.2229L19.055 33.8906L16.1087 30.9443Z" fill="#A1803E"/>
</svg>
