<svg width="32" height="32" viewBox="0 0 32 32" fill="none" xmlns="http://www.w3.org/2000/svg">
<path fill-rule="evenodd" clip-rule="evenodd" d="M29.8 22.0002C29.2 22.0002 28.8 22.2002 28.4 22.6002L22.4 28.6002C22 29.0002 21.8 29.4002 21.8 30.0002C21.8 31.2002 22.8 32.0002 23.8 32.0002C24.4 32.0002 24.8 31.8002 25.2 31.4002L31.2 25.4002C31.6 25.0002 31.8 24.6002 31.8 24.0002C31.8 23.0002 31 22.0002 29.8 22.0002V22.0002ZM27.8 20.0002C27.8 19.8002 27.8 19.8002 27.8 19.6002V19.6002L25.8 9.60019V9.60019C25.6 9.00019 25.2 8.4002 24.6 8.2002V8.2002L2.6 0.200195L2 0.800195L13.6 12.4002C14 12.2002 14.4 12.0002 14.8 12.0002C16.4 12.0002 17.8 13.4002 17.8 15.0002C17.8 16.6002 16.6 18.0002 14.8 18.0002C13 18.0002 11.8 16.6002 11.8 15.0002C11.8 14.6002 12 14.2002 12.2 13.8002L0.6 2.2002L0 2.8002L8 24.8002V24.8002C8.2 25.4002 8.8 26.0002 9.4 26.0002V26.0002L19.4 28.0002V28.0002C19.6 28.0002 19.6 28.0002 19.8 28.0002C20.4 28.0002 20.8 27.8002 21.2 27.4002L27.2 21.4002C27.6 21.0002 27.8 20.6002 27.8 20.0002V20.0002Z" fill="#8C4303"/>
</svg>
