<svg width="800" height="800" viewBox="0 0 800 800" fill="none" xmlns="http://www.w3.org/2000/svg">
<g clip-path="url(#clip0_2118_11)">
<mask id="mask0_2118_11" style="mask-type:luminance" maskUnits="userSpaceOnUse" x="0" y="0" width="800" height="800">
<path d="M800 0H0V800H800V0Z" fill="white"/>
</mask>
<g mask="url(#mask0_2118_11)">
<path d="M400 700C565.687 700 700 565.683 700 400C700 234.314 565.687 99.999 400 99.999C234.315 99.999 100 234.314 100 400C100 449.587 112.031 496.363 133.333 537.573L100 700L262.427 666.667C303.635 687.967 350.413 700 400 700Z" stroke="#A1803E" stroke-width="83.3333" stroke-linecap="round" stroke-linejoin="round"/>
<path d="M250.333 400H250V400.333H250.333V400Z" stroke="#A1803E" stroke-width="125" stroke-linejoin="round"/>
<path d="M400.333 400H400V400.333H400.333V400Z" stroke="#A1803E" stroke-width="125" stroke-linejoin="round"/>
<path d="M550.333 400H550V400.333H550.333V400Z" stroke="#A1803E" stroke-width="125" stroke-linejoin="round"/>
</g>
</g>
<defs>
<clipPath id="clip0_2118_11">
<rect width="800" height="800" fill="white"/>
</clipPath>
</defs>
</svg>
