<svg width="32" height="32" viewBox="0 0 32 32" fill="none" xmlns="http://www.w3.org/2000/svg">
<path fill-rule="evenodd" clip-rule="evenodd" d="M12 20C9.8 20 8 18.2 8 16V6H2C0.9 6 0 6.9 0 8V24C0 25.1 0.9 26 2 26V30C2 31.1 2.9 32 4 32C4.56 32 5.06 31.78 5.42 31.42L10.82 26H20C21.1 26 22 25.1 22 24V21.66L20.34 20H12ZM30 0H12C10.9 0 10 0.9 10 2V16C10 17.1 10.9 18 12 18H21.18L26.6 23.42C26.94 23.78 27.44 24 28 24C29.1 24 30 23.1 30 22V18C31.1 18 32 17.1 32 16V2C32 0.9 31.1 0 30 0Z" fill="#8C4303"/>
</svg>
