<svg width="50" height="50" viewBox="0 0 50 50" fill="none" xmlns="http://www.w3.org/2000/svg">
<g clip-path="url(#clip0_2118_22)">
<path d="M40.625 21.875H37.5V25H40.625C41.8678 25.0014 43.0593 25.4957 43.9381 26.3744C44.8168 27.2532 45.3111 28.4447 45.3125 29.6875V35.9375H48.4375V29.6875C48.4351 27.6162 47.6112 25.6305 46.1466 24.1659C44.682 22.7013 42.6963 21.8774 40.625 21.875Z" fill="#A1803E"/>
<path d="M37.5 6.25C38.4271 6.25 39.3334 6.52492 40.1042 7.03999C40.8751 7.55506 41.4759 8.28714 41.8307 9.14367C42.1855 10.0002 42.2783 10.9427 42.0974 11.852C41.9166 12.7613 41.4701 13.5965 40.8146 14.2521C40.159 14.9076 39.3238 15.3541 38.4145 15.5349C37.5052 15.7158 36.5627 15.623 35.7062 15.2682C34.8496 14.9134 34.1176 14.3126 33.6025 13.5417C33.0874 12.7709 32.8125 11.8646 32.8125 10.9375C32.8125 9.6943 33.3064 8.50201 34.1854 7.62294C35.0645 6.74386 36.2568 6.25 37.5 6.25ZM37.5 3.125C35.9548 3.125 34.4444 3.58319 33.1596 4.44164C31.8749 5.30009 30.8735 6.52024 30.2822 7.94779C29.6909 9.37533 29.5362 10.9462 29.8376 12.4616C30.1391 13.9771 30.8831 15.3692 31.9757 16.4618C33.0683 17.5544 34.4604 18.2984 35.9759 18.5999C37.4913 18.9013 39.0622 18.7466 40.4897 18.1553C41.9173 17.564 43.1374 16.5627 43.9959 15.2779C44.8543 13.9931 45.3125 12.4827 45.3125 10.9375C45.3125 8.8655 44.4894 6.87836 43.0243 5.41323C41.5591 3.9481 39.572 3.125 37.5 3.125Z" fill="#A1803E"/>
<path d="M35.9375 46.875H32.8125V43.75C32.8111 42.5072 32.3168 41.3157 31.4381 40.4369C30.5593 39.5582 29.3678 39.0639 28.125 39.0625H21.875C20.6322 39.0639 19.4407 39.5582 18.5619 40.4369C17.6832 41.3157 17.1889 42.5072 17.1875 43.75V46.875H14.0625V43.75C14.0649 41.6787 14.8888 39.693 16.3534 38.2284C17.818 36.7638 19.8037 35.9399 21.875 35.9375H28.125C30.1963 35.9399 32.182 36.7638 33.6466 38.2284C35.1112 39.693 35.9351 41.6787 35.9375 43.75V46.875Z" fill="#A1803E"/>
<path d="M25 20.3125C25.9271 20.3125 26.8334 20.5874 27.6042 21.1025C28.3751 21.6176 28.9759 22.3496 29.3307 23.2062C29.6855 24.0627 29.7783 25.0052 29.5974 25.9145C29.4166 26.8238 28.9701 27.659 28.3146 28.3146C27.659 28.9701 26.8238 29.4166 25.9145 29.5974C25.0052 29.7783 24.0627 29.6855 23.2062 29.3307C22.3496 28.9759 21.6176 28.3751 21.1025 27.6042C20.5874 26.8334 20.3125 25.9271 20.3125 25C20.3125 23.7568 20.8064 22.5645 21.6854 21.6854C22.5645 20.8064 23.7568 20.3125 25 20.3125ZM25 17.1875C23.4548 17.1875 21.9444 17.6457 20.6596 18.5041C19.3749 19.3626 18.3735 20.5827 17.7822 22.0103C17.1909 23.4378 17.0362 25.0087 17.3376 26.5241C17.6391 28.0396 18.3831 29.4317 19.4757 30.5243C20.5683 31.6169 21.9604 32.3609 23.4759 32.6624C24.9913 32.9638 26.5622 32.8091 27.9897 32.2178C29.4173 31.6265 30.6374 30.6252 31.4959 29.3404C32.3543 28.0556 32.8125 26.5452 32.8125 25C32.8125 22.928 31.9894 20.9409 30.5243 19.4757C29.0591 18.0106 27.072 17.1875 25 17.1875Z" fill="#A1803E"/>
<path d="M12.5 21.875H9.375C7.30375 21.8774 5.31802 22.7013 3.85342 24.1659C2.38882 25.6305 1.56494 27.6162 1.5625 29.6875V35.9375H4.6875V29.6875C4.68886 28.4447 5.18316 27.2532 6.06194 26.3744C6.94073 25.4957 8.13222 25.0014 9.375 25H12.5V21.875Z" fill="#A1803E"/>
<path d="M12.5 6.25C13.4271 6.25 14.3334 6.52492 15.1042 7.03999C15.8751 7.55506 16.4759 8.28714 16.8307 9.14367C17.1855 10.0002 17.2783 10.9427 17.0974 11.852C16.9166 12.7613 16.4701 13.5965 15.8146 14.2521C15.159 14.9076 14.3238 15.3541 13.4145 15.5349C12.5052 15.7158 11.5627 15.623 10.7062 15.2682C9.84965 14.9134 9.11756 14.3126 8.60249 13.5417C8.08742 12.7709 7.8125 11.8646 7.8125 10.9375C7.8125 9.6943 8.30636 8.50201 9.18544 7.62294C10.0645 6.74386 11.2568 6.25 12.5 6.25ZM12.5 3.125C10.9548 3.125 9.44437 3.58319 8.15961 4.44164C6.87485 5.30009 5.8735 6.52024 5.28219 7.94779C4.69089 9.37533 4.53617 10.9462 4.83762 12.4616C5.13907 13.9771 5.88313 15.3692 6.97573 16.4618C8.06833 17.5544 9.46038 18.2984 10.9759 18.5999C12.4913 18.9013 14.0622 18.7466 15.4897 18.1553C16.9173 17.564 18.1374 16.5627 18.9959 15.2779C19.8543 13.9931 20.3125 12.4827 20.3125 10.9375C20.3125 8.8655 19.4894 6.87836 18.0243 5.41323C16.5591 3.9481 14.572 3.125 12.5 3.125Z" fill="#A1803E"/>
</g>
<defs>
<clipPath id="clip0_2118_22">
<rect width="50" height="50" fill="white"/>
</clipPath>
</defs>
</svg>
