<svg width="32" height="32" viewBox="0 0 32 32" fill="none" xmlns="http://www.w3.org/2000/svg">
<path fill-rule="evenodd" clip-rule="evenodd" d="M25.7694 27.2567C25.6753 26.805 25.5059 26.3156 25.2988 25.8262C24.6212 24.2073 23.1906 23.3226 20.2353 22.0614C19.9718 21.9485 19.1247 21.5909 19.1059 21.5909C18.7106 21.4214 18.4282 21.3085 18.1647 21.1767C18.2024 20.9885 18.2024 20.8003 18.2212 20.5932C18.2212 20.5179 18.24 20.4426 18.24 20.3485C18.1082 20.2356 17.9953 20.1226 17.8824 19.9909C18.2965 19.3885 18.6353 18.7297 18.8988 18.0144C18.9365 17.9014 18.9365 17.9014 18.9553 17.8262C19.5012 17.3932 19.8588 16.7532 20.0659 16.0191C20.3671 15.3979 20.5365 14.645 20.4612 13.8356C20.4047 13.0826 20.16 12.405 19.7647 11.8967C19.7271 10.8991 19.6329 9.76968 19.4824 8.99792C19.4635 8.88498 19.4447 8.77204 19.4259 8.64027C19.8588 8.52733 20.3294 8.47086 20.7812 8.47086C21.7035 8.47086 22.7576 8.77204 23.4918 9.33674C24.2071 9.88262 24.7529 10.6544 24.9976 11.5391C25.0541 11.7273 25.0918 11.9344 25.1294 12.1226C25.2612 12.8191 25.3365 13.892 25.3365 14.6262C25.3365 14.6638 25.3365 14.7014 25.3365 14.7203C25.6 14.8332 25.8447 15.1156 25.8824 15.6803C25.92 16.1509 25.7506 16.5273 25.6376 16.6967C25.5435 17.092 25.3365 17.525 24.9224 17.6003C24.8847 17.7885 24.8282 17.9767 24.7529 18.165C24.7529 18.1838 24.7341 18.2214 24.7341 18.2214C24.4141 19.0497 23.9247 19.7838 23.3224 20.3109C23.3224 20.405 23.3224 20.4991 23.3224 20.5744C23.3788 21.2332 23.1529 21.685 24.8847 22.4567C26.6353 23.2285 29.2518 24.0379 29.7788 25.2803C30.3247 26.5226 30.0988 27.2379 30.0988 27.2379H25.7694V27.2567ZM23.5671 26.5414C24.2635 28.1603 23.9812 29.1014 23.9812 29.1014H0.112941C0.112941 29.1014 -0.150588 28.1603 0.527059 26.5414C1.20471 24.9226 4.53647 23.8497 6.75765 22.852C8.96 21.8356 8.73412 21.2332 8.80941 20.405C8.80941 20.3109 8.82824 20.1979 8.82824 20.085C8.05647 19.4262 7.41647 18.4662 7.00235 17.3556V17.3367C7.00235 17.3367 6.98353 17.3179 6.98353 17.2991C6.90824 17.0732 6.81412 16.8097 6.75765 16.565C6.23059 16.4709 5.92941 15.8873 5.81647 15.3603C5.70353 15.1344 5.45882 14.6262 5.51529 14.0238C5.59059 13.252 5.91059 12.8944 6.24941 12.7438C6.24941 12.7062 6.24941 12.6685 6.24941 12.6309C6.24941 11.6709 6.34353 10.2591 6.51294 9.35557C6.55059 9.11086 6.60706 8.84733 6.68235 8.60262C7.00235 7.47321 7.69882 6.47557 8.60235 5.76027C9.54353 5.02615 10.88 4.63086 12.0659 4.63086C13.2518 4.63086 14.5882 5.02615 15.5294 5.76027C16.4329 6.47557 17.1294 7.47321 17.4494 8.62145C17.5247 8.86615 17.5812 9.12968 17.6188 9.37439C17.7882 10.2779 17.8824 11.6709 17.8824 12.6309C17.8824 12.6685 17.8824 12.725 17.8824 12.7626C18.2212 12.9132 18.5224 13.2709 18.5788 14.0238C18.6353 14.6262 18.4094 15.1344 18.2776 15.3603C18.1647 15.8873 17.8824 16.452 17.3741 16.5462C17.3176 16.7909 17.2424 17.0356 17.1482 17.2803C17.1482 17.2991 17.1294 17.3556 17.1294 17.3556C16.7153 18.4473 16.0941 19.3885 15.3412 20.085C15.3412 20.1979 15.3412 20.3297 15.3412 20.4238C15.4165 21.2709 15.1153 21.8732 17.3365 22.8709C19.5576 23.8685 22.8894 24.9226 23.5671 26.5414Z" fill="#8C4303"/>
</svg>
